#!OML:ASF F:\VICON\USERDATA\INSTALL\rory3\rory3.ASF
:FULLY-SPECIFIED
:DEGREES
80
root -0.8853489364505421 17.43515135297549 9.999323047764447 3.065234404525187 0.24633669821256332 -1.2258416335542528
lfemur -38.72171639670789 5.949603838747345 -20.369602019558478
ltibia 78.06922809355632
lfoot 4.201328977120934 -10.751662510298749
ltoes -21.504952618722562
rfemur 2.7405122557179684 6.157732332846939 30.036699430485598
rtibia 60.225018876610015
rfoot 7.1747494327946475 -7.712636948087195
rtoes 0.4194662224978605
lowerback 15.375173513345885 2.3925945920342135 2.532943876658233
upperback -0.3514092624878694 3.731175017081501 -0.04486264720046351
thorax -8.46472405641747 1.6399459209046476 -2.3434535701708925
lowerneck -18.8068453172152 -5.477569137159662 -1.5729827436558879
upperneck 12.684486174627864 -7.896325253861337 4.0126982398703
head 7.3368871658711825 -3.3521914524377032 0.749269394406909
lclavicle -2.0490533136713414e-17 4.258099200475701e-16
lhumerus -42.927957596253236 -10.743535443648085 93.14669165136057
lradius 109.12136423950723
lwrist 34.525160015512114
lhand -27.036996697207545 3.76948928019448
lfingers 7.125019999999998
lthumb -0.6466182251538053 32.50708739137352
rclavicle -2.049053339743231e-17 4.258099198757973e-16
rhumerus -51.42335661450857 8.266099838912229 -93.50927528738706
rradius 96.56880897074228
rwrist -18.317035446134597
rhand -19.32048077063397 40.70026677392995
rfingers 7.125019999999998
rthumb 6.670628510311885 10.766305985412833
81
root -0.8849596074163406 17.372161972048044 10.44884742756739 2.9727024360561543 0.45932979698598986 -0.935939696483635
lfemur -38.49367330073556 5.855129952767684 -20.900771244889757
ltibia 75.68191370934136
lfoot 3.839411960947463 -10.978357130017613
ltoes -19.198151477459856
rfemur 3.516070991042488 6.203971960634998 29.720380035399067
rtibia 62.65997568442795
rfoot 5.837697978180671 -8.071182643018398
rtoes 0.10759292027078615
lowerback 15.419062961993664 2.378426150866507 2.2404609060582876
upperback -0.30387633066354763 3.642050055539465 -0.17037745931041026
thorax -8.485361749862006 1.609656675361105 -2.2875278226578923
lowerneck -18.86003666300318 -5.478242316122257 -1.5556667387651713
upperneck 12.546914640256889 -7.889727275502165 4.060183292922528
head 7.274872541958019 -3.3503110952150874 0.7593956692944976
lclavicle -2.049053313595927e-17 4.2580992004793713e-16
lhumerus -42.907059213328516 -10.603010087594601 93.16173460260686
lradius 108.86250701565288
lwrist 34.597518519993436
lhand -27.105766601479974 4.701375419889413
lfingers 7.125019999999998
lthumb -0.6831884187467789 33.393148584471476
rclavicle -2.0490533397292213e-17 4.2580991987575414e-16
rhumerus -50.975015320804374 8.262362333314623 -93.54642117895875
rradius 96.7273860625618
rwrist -18.131411851972562
rhand -19.306220542440837 40.30422427279774
rfingers 7.125019999999998
rthumb 6.691111708193811 10.429590630786986
82
root -0.8811302552486264 17.313591809938256 10.930477502034798 2.9013683376559882 0.6654820660041388 -0.6138710600962767
lfemur -38.116149637468766 5.7588379658017415 -21.477175830376368
ltibia 73.23575253558693
lfoot 3.605244226455382 -10.968137828613338
ltoes -17.15345494783488
rfemur 4.078739502712528 6.181166302110675 29.325758652653693
rtibia 65.24738662902735
rfoot 4.394829133498581 -8.487467409005774
rtoes 0.9280167179724073
lowerback 15.45365160360115 2.3560117710103468 1.9154252495683262
upperback -0.2687512463719204 3.55005733321901 -0.30430994167430325
thorax -8.512834522223514 1.5747623192642006 -2.2251547450103537
lowerneck -18.879642005126975 -5.480714635878116 -1.5471228547148823
upperneck 12.440330588488932 -7.894234842819817 4.115604672776625
head 7.228632871868656 -3.349690105400155 0.7712845418707974
lclavicle -2.0490533135594378e-17 4.258099200479366e-16
lhumerus -43.03796095225787 -10.553125833306645 93.19010927932602
lradius 108.59341473696718
lwrist 34.62732194594434
lhand -27.560684556278172 4.795177394261809
lfingers 7.125019999999998
lthumb -0.7417566409336005 34.100411538069636
rclavicle -2.0490533397168103e-17 4.258099198755785e-16
rhumerus -50.50488849855117 8.288255765218832 -93.59771500565517
rradius 96.87684513461029
rwrist -18.02748139547948
rhand -19.280412340249168 39.918305500307916
rfingers 7.125019999999998
rthumb 6.697745273830447 10.11029188928368
83
root -0.8843761485667719 17.254581712745633 11.383438406325306 2.8515273199725555 0.8462361104315569 -0.32366637311809165
lfemur -37.650574503290954 5.67017213023685 -22.013810886292912
ltibia 70.77724802291951
lfoot 3.54962282028972 -10.801147851903835
ltoes -15.714879608231525
rfemur 4.356427154666585 6.1582226391014325 28.929063247692696
rtibia 68.00667368116831
rfoot 3.018686756601727 -9.03692032040477
rtoes 0.7752123561385571
lowerback 15.515670261864214 2.327633881318275 1.5834404026468243
upperback -0.23877307947054682 3.4486597955392324 -0.4117318680984977
thorax -8.562447946678917 1.5344884021681917 -2.140654258763043
lowerneck -18.905365400517596 -5.478638096163023 -1.536705867849259
upperneck 12.35762627406122 -7.894478879417001 4.173521925930151
head 7.205522355580557 -3.3463547154672733 0.7809592985485689
lclavicle -2.0490533132863132e-17 4.2580992004954005e-16
lhumerus -43.16018234754562 -10.516018585548867 93.19940803745739
lradius 108.2160126371543
lwrist 34.5916645954742
lhand -27.81114849064671 5.055138336947259
lfingers 7.125019999999998
lthumb -0.6525426455356682 35.25821743492918
rclavicle -2.0490533401079273e-17 4.2580991987290694e-16
rhumerus -50.024609161698045 8.344953952798887 -93.66150593367514
rradius 96.99997431580864
rwrist -17.775697158536254
rhand -19.25421007333753 39.5077901362627
rfingers 7.125019999999998
rthumb 6.694698893244018 9.769898316441774
84
root -0.8846592831249951 17.197085380342557 11.925632464522192 2.8241480364836304 1.0014344902144867 -0.012392031005451554
lfemur -37.050315851256 5.585195638022531 -22.569893840982992
ltibia 68.32558225093604
lfoot 3.1419331471464633 -10.770013565411423
ltoes -15.420887016325835
rfemur 4.395316843399426 6.098453985972319 28.486693566659678
rtibia 70.90574542928066
rfoot 1.5693170675097425 -9.665388972412057
rtoes 0.660112600721757
lowerback 15.558883927696888 2.292238950517696 1.2408924856417178
upperback -0.2034324281441472 3.3384580052164012 -0.5095327698144881
thorax -8.620762061409225 1.4912668034559062 -2.051493001839485
lowerneck -18.95175970356199 -5.476967045248941 -1.5256430754088672
upperneck 12.2822710916339 -7.896019273936449 4.228234280754987
head 7.196435535992127 -3.341259473858414 0.7868492978641883
lclavicle -2.0490533129878967e-17 4.2580992005142133e-16
lhumerus -43.25752130614049 -10.440660671419728 93.1959670143538
lradius 107.78237319848974
lwrist 34.5075799582406
lhand -28.004140363101524 5.4317034999381235
lfingers 7.125019999999998
lthumb -0.8666443926573464 35.01178572377209
rclavicle -2.0490533400957523e-17 4.258099198729525e-16
rhumerus -49.54215273323712 8.438683807551257 -93.73897427483216
rradius 97.09232615607736
rwrist -17.811159625754104
rhand -19.198580227217516 39.164069125417456
rfingers 7.125019999999998
rthumb 6.729192332388759 9.502799531932022
85
root -0.8723257210137197 17.151768998635692 12.600220603829513 2.8216178772614975 1.178780699719544 0.3734776108046989
lfemur -36.248896093917274 5.459495117472972 -23.22097825802092
ltibia 65.92131746865407
lfoot 2.3958995535750254 -10.870044917637452
ltoes -15.57600753219075
rfemur 4.207548763820364 5.894330367318395 27.91204772773962
rtibia 73.9101513324123
rfoot 0.15989543888557645 -10.094141947444431
rtoes 0.703539723660787
lowerback 15.547410081269332 2.2376714234977433 0.8714022170001675
upperback -0.15683441611119153 3.184833952242711 -0.6345745846424843
thorax -8.646598791247827 1.4355201376384619 -1.9454062079427072
lowerneck -19.043791041237043 -5.47488358027206 -1.517252993160533
upperneck 12.237957986214672 -7.8981170414447845 4.287487628534515
head 7.201018008347777 -3.3362395191111966 0.7944338930426832
lclavicle -2.0490533130707178e-17 4.258099200509116e-16
lhumerus -43.345587890915 -10.327265570359916 93.19765159430533
lradius 107.31993278430146
lwrist 34.41944140861279
lhand -28.063995385177282 6.115810018613641
lfingers 7.125019999999998
lthumb -0.8875357592271331 34.890217571175704
rclavicle -2.0490533399540775e-17 4.2580991987388104e-16
rhumerus -49.04722781792984 8.582359043323802 -93.8260213258171
rradius 97.18831555196627
rwrist -17.634398936400608
rhand -19.175278604977063 38.812949651272916
rfingers 7.125019999999998
rthumb 6.740054697135438 9.222581641892713
